<svg width="847" height="447" fill="none" xmlns="http://www.w3.org/2000/svg"><path d="M89.998 206.632v29.519h-29.44c0 57.351 0 136.63.842 150.124-4.206-.843-11.776-.843-15.981-.843-5.047 0-11.776 0-15.981.843.84-13.494.84-92.773.84-150.124H.84v-29.519h89.158ZM167.38 386.275c0-26.145.841-59.037.841-102.894 0-14.338-3.364-20.241-14.299-20.241-10.934 0-19.345 7.59-19.345 26.988v96.147h-30.28c.841-21.928.841-43.013.841-78.435 0-41.327 0-81.81-.841-107.112h31.121c0 13.495-.841 23.615-.841 34.579 0 6.748 0 12.651-.841 19.399h.841c5.888-13.495 15.981-19.399 31.962-19.399 18.505 0 31.121 11.808 31.121 38.797 0 26.988-.841 41.326-.841 58.194 0 20.242 0 36.266.841 53.134h-30.28v.843ZM262.427 388.805c-29.439 0-47.103-18.554-47.103-75.062 0-58.194 17.664-78.436 47.944-78.436 31.121 0 42.055 20.242 42.055 55.664 0 11.808-.841 25.302-.841 31.206-8.411 0-21.869-.843-34.485-.843h-26.075c.841 34.579 6.729 42.169 19.346 42.169 11.775 0 15.14-6.747 15.14-25.301 3.364 0 8.411.843 13.457.843 5.047 0 9.253 0 13.458-.843-.841 34.579-9.252 50.603-42.896 50.603Zm-19.346-85.183c10.934.844 23.551 0 33.644 0 0-3.373.842-7.59.842-13.494 0-22.772-4.206-29.519-15.982-29.519-10.934-.843-16.822 6.747-18.504 43.013ZM471.021 206.632v29.519h-29.439c0 57.351 0 136.63.841 150.124-4.205-.843-11.775-.843-15.981-.843-5.046 0-11.775 0-15.981.843.841-13.494.841-92.773.841-150.124h-29.439v-29.519h89.158ZM508.871 263.983c4.206-20.242 13.458-27.832 26.916-26.989 4.206 0 7.57.843 11.775 1.687-.841 7.59-1.682 21.928-2.523 31.206-3.364-.844-7.57-1.687-10.934-1.687-15.14 0-20.187 6.747-20.187 33.736 0 26.988 0 62.411.841 84.339h-31.962V237.837h25.233c0 7.591-.841 16.025-.841 25.302l1.682.844ZM653.544 237.838c-.841 21.085-.841 40.483-.841 73.375 0 32.049 0 55.664.841 75.062h-30.28c0-6.747 0-11.807.841-16.867h-.841c-5.046 13.494-15.981 19.398-31.121 19.398-20.186 0-31.962-11.808-31.962-38.797v-58.194c0-20.241 0-36.266-.841-53.134h31.121c-.841 26.145-.841 60.725-.841 105.425 0 13.494 4.205 19.398 14.299 19.398 10.934 0 19.345-7.591 19.345-26.145 0-62.412 0-80.123-.841-97.834h31.121v-1.687ZM709.898 238.681h26.075c-.842 8.434-.842 19.398-.842 28.676-6.728 0-15.981-.844-26.074-.844 0 23.615-.841 50.604-.841 80.123 0 10.121 3.364 13.494 11.775 13.494 5.047 0 10.094-.843 13.458-3.373.841 9.277 2.524 21.084 3.365 28.675-7.57 2.53-12.617 3.374-21.869 3.374-26.916 0-36.168-16.025-36.168-39.64 0-22.772 0-52.291.841-83.496h-10.934v-26.989h11.775v-27.832h30.28l-.841 27.832ZM816.72 386.275c0-26.145.841-59.037.841-102.894 0-14.338-3.364-20.241-14.299-20.241-10.934 0-19.345 7.59-19.345 26.988v96.147h-30.28c.841-21.928.841-43.013.841-78.435 0-41.327 0-81.81-.841-107.112h31.121c0 13.495-.841 23.615-.841 34.579 0 6.748 0 12.651-.841 19.399h.841c5.888-13.495 15.981-19.399 31.962-19.399 18.505 0 31.121 11.808 31.121 38.797 0 26.988-.841 41.326-.841 58.194 0 20.242 0 36.266.841 53.134h-30.28v.843ZM348.22 437.722c5.047-25.301 9.253-50.603 14.299-75.905-7.57.843-14.299 1.687-21.869 2.53 9.253 16.025 17.664 32.892 26.916 48.917 3.364 6.747 6.729 13.494 10.934 19.398 3.365 5.904 5.888 11.808 14.299 12.651 5.888.843 10.094-4.217 11.776-8.434 2.523-5.904-2.523-13.494-8.411-15.181-6.729-1.687-12.617 1.687-15.14 8.434 4.205-2.53 7.57-5.904 11.775-8.434 2.524.843 5.888 2.53 8.411 3.374 0 0 2.524 3.373 1.683 1.686 0-.843-.841-.843-.841-1.686-.842-2.531-2.524-4.217-3.365-6.748-3.364-6.747-6.729-12.651-10.934-19.398-8.411-15.181-16.823-31.205-25.234-46.387-5.046-8.433-20.186-7.59-21.869 2.531-5.046 25.302-9.252 50.603-14.299 75.905-.841 5.904 1.683 13.495 8.412 15.181 5.046 1.687 12.616-1.686 13.457-8.434ZM185.883 102.894c5.046-2.53 11.775-4.217 16.822 1.687 7.57 10.121 11.776 47.23 18.504 48.917 5.888.843 22.71-23.615 27.757-40.483 4.206-15.181 5.888-38.796 10.093-48.074 4.206-6.747 19.346-9.277 25.234.844.841 43.856-21.028 91.086-45.42 107.954-10.935 6.748-25.234 11.808-34.486 3.374-4.205-3.374-12.616-24.458-14.299-25.302-1.682-.843-13.458 18.555-18.504 21.928-10.935 7.591-30.28 9.278-37.85-3.373-5.888-9.278-7.57-26.989-9.252-41.327-2.524-10.12-5.888-53.134.841-61.567 5.046-6.748 19.345-5.06 22.71 1.686 3.364 5.904-.841 32.893 0 42.17.841 13.494 1.682 33.736 5.887 39.64 15.14-4.217 23.552-42.17 31.963-48.074ZM365.04 60.724c11.776 2.53 15.982 21.085 16.823 39.64.841 12.651-.841 32.892-1.683 48.917 0 16.868 0 34.579-6.728 40.483-5.888 5.904-17.664 3.374-20.187-1.687-2.524-5.06 0-27.832.841-56.507 0-6.747 1.682-36.266-2.523-40.483-8.412 0-14.299 4.217-18.505 8.434-5.047 4.217-8.411 10.12-10.934 16.868-4.206 18.554-4.206 31.205-7.57 51.447-1.683 13.494-1.683 26.145-18.505 24.458-11.775-1.687-11.775-16.024-9.252-31.205 3.364-25.302 6.729-37.11 10.934-64.099 2.524-19.398 4.206-30.362 6.729-47.23 1.683-16.868 2.524-41.326 14.299-43.013 5.888-.843 13.458 1.687 15.981 5.904 5.047 8.434-.841 20.241-1.682 27.832-1.682 10.964-5.888 30.362-3.364 30.362 13.457-.843 20.186-14.338 35.326-10.12ZM508.029 113.858c2.523 21.085-10.094 40.483-27.757 53.134-10.093 6.748-21.869 10.965-37.85 8.434-13.458-1.686-28.598-10.12-36.168-18.554-13.458-19.398-10.093-49.761 1.682-66.629 5.888-9.277 7.57-11.807 17.664-20.241 6.729-4.217 10.934-7.59 19.345-8.434 38.691-5.904 63.084 18.555 63.084 52.29Zm-50.467 35.423c8.411-2.53 19.346-11.807 22.71-23.615 5.047-21.928-10.093-42.17-28.598-38.796-14.299 2.53-27.757 26.145-25.233 43.013 1.682 12.651 13.458 23.615 31.121 19.398ZM564.382 38.796c-3.365 40.483-8.411 74.219-12.617 113.015-.841 7.591-4.206 28.676-5.888 33.736-3.364 8.434-15.14 16.025-22.71 10.964-8.411-5.06 0-39.639 1.682-51.447 4.206-32.049 8.412-55.664 10.935-86.87 2.523-21.928.841-51.447 19.345-56.507 17.664-5.904 10.935 21.085 9.253 37.11ZM632.515 166.993c17.663 4.217 25.233-10.121 35.327-3.374 5.887 5.904 4.205 14.338 0 17.711-13.458 9.278-39.533 12.651-52.991 5.061-21.027-9.278-27.756-16.868-34.485-38.797-4.206-22.771-1.682-39.639 7.57-50.603 6.729-11.808 18.504-21.929 29.439-24.459 26.074-8.434 47.102 0 58.037 26.145 1.682 3.374 5.046 13.495 5.046 18.555 0 6.747-5.046 16.025-11.775 18.555-11.776 4.217-17.664 7.59-30.28 10.964-8.411 2.53-19.346 5.06-25.234 6.747.841 8.434 7.57 10.964 19.346 13.495Zm-26.075-39.64c5.047.843 21.028-4.217 30.28-5.904 5.888-.843 13.458-5.904 15.14-10.121-6.728-20.241-21.868-21.928-38.691-8.434-6.729 5.904-8.411 19.399-6.729 24.459Z" fill="#231F20"/></svg>